<svg id="visual" viewBox="0 0 1200 150" width="1200" height="150" xmlns="http://www.w3.org/2000/svg" xmlns:xlink="http://www.w3.org/1999/xlink" version="1.1"><path d="M0 129L11.2 132C22.3 135 44.7 141 66.8 144C89 147 111 147 133.2 146.5C155.3 146 177.7 145 200 144.3C222.3 143.7 244.7 143.3 266.8 141.3C289 139.3 311 135.7 333.2 133.8C355.3 132 377.7 132 400 133C422.3 134 444.7 136 466.8 134.5C489 133 511 128 533.2 126.8C555.3 125.7 577.7 128.3 600 129.8C622.3 131.3 644.7 131.7 666.8 130.8C689 130 711 128 733.2 128.3C755.3 128.7 777.7 131.3 800 132.7C822.3 134 844.7 134 866.8 133.2C889 132.3 911 130.7 933.2 130.3C955.3 130 977.7 131 1000 131.5C1022.3 132 1044.7 132 1066.8 131.7C1089 131.3 1111 130.7 1133.2 130.8C1155.3 131 1177.7 132 1188.8 132.5L1200 133L1200 0L1188.8 0C1177.7 0 1155.3 0 1133.2 0C1111 0 1089 0 1066.8 0C1044.7 0 1022.3 0 1000 0C977.7 0 955.3 0 933.2 0C911 0 889 0 866.8 0C844.7 0 822.3 0 800 0C777.7 0 755.3 0 733.2 0C711 0 689 0 666.8 0C644.7 0 622.3 0 600 0C577.7 0 555.3 0 533.2 0C511 0 489 0 466.8 0C444.7 0 422.3 0 400 0C377.7 0 355.3 0 333.2 0C311 0 289 0 266.8 0C244.7 0 222.3 0 200 0C177.7 0 155.3 0 133.2 0C111 0 89 0 66.8 0C44.7 0 22.3 0 11.2 0L0 0Z" fill="#8380b6"></path><path d="M0 126L11.2 125.7C22.3 125.3 44.7 124.7 66.8 126C89 127.3 111 130.7 133.2 129.5C155.3 128.3 177.7 122.7 200 119.2C222.3 115.7 244.7 114.3 266.8 116.3C289 118.3 311 123.7 333.2 127C355.3 130.3 377.7 131.7 400 131.3C422.3 131 444.7 129 466.8 125.2C489 121.3 511 115.7 533.2 115.8C555.3 116 577.7 122 600 122.8C622.3 123.7 644.7 119.3 666.8 119.7C689 120 711 125 733.2 125.7C755.3 126.3 777.7 122.7 800 121.7C822.3 120.7 844.7 122.3 866.8 121.5C889 120.7 911 117.3 933.2 115.3C955.3 113.3 977.7 112.7 1000 116C1022.3 119.3 1044.7 126.7 1066.8 127.3C1089 128 1111 122 1133.2 121.7C1155.3 121.3 1177.7 126.7 1188.8 129.3L1200 132L1200 0L1188.8 0C1177.7 0 1155.3 0 1133.2 0C1111 0 1089 0 1066.8 0C1044.7 0 1022.3 0 1000 0C977.7 0 955.3 0 933.2 0C911 0 889 0 866.8 0C844.7 0 822.3 0 800 0C777.7 0 755.3 0 733.2 0C711 0 689 0 666.8 0C644.7 0 622.3 0 600 0C577.7 0 555.3 0 533.2 0C511 0 489 0 466.8 0C444.7 0 422.3 0 400 0C377.7 0 355.3 0 333.2 0C311 0 289 0 266.8 0C244.7 0 222.3 0 200 0C177.7 0 155.3 0 133.2 0C111 0 89 0 66.8 0C44.7 0 22.3 0 11.2 0L0 0Z" fill="#7474a7"></path><path d="M0 114L11.2 112.7C22.3 111.3 44.7 108.7 66.8 109C89 109.3 111 112.7 133.2 114.7C155.3 116.7 177.7 117.3 200 114.7C222.3 112 244.7 106 266.8 102.3C289 98.7 311 97.3 333.2 99.3C355.3 101.3 377.7 106.7 400 110.7C422.3 114.7 444.7 117.3 466.8 116C489 114.7 511 109.3 533.2 106.7C555.3 104 577.7 104 600 105.2C622.3 106.3 644.7 108.7 666.8 110.2C689 111.7 711 112.3 733.2 112.5C755.3 112.7 777.7 112.3 800 111.3C822.3 110.3 844.7 108.7 866.8 107.3C889 106 911 105 933.2 107C955.3 109 977.7 114 1000 112.8C1022.3 111.7 1044.7 104.3 1066.8 101.2C1089 98 1111 99 1133.2 102.8C1155.3 106.7 1177.7 113.3 1188.8 116.7L1200 120L1200 0L1188.8 0C1177.7 0 1155.3 0 1133.2 0C1111 0 1089 0 1066.8 0C1044.7 0 1022.3 0 1000 0C977.7 0 955.3 0 933.2 0C911 0 889 0 866.8 0C844.7 0 822.3 0 800 0C777.7 0 755.3 0 733.2 0C711 0 689 0 666.8 0C644.7 0 622.3 0 600 0C577.7 0 555.3 0 533.2 0C511 0 489 0 466.8 0C444.7 0 422.3 0 400 0C377.7 0 355.3 0 333.2 0C311 0 289 0 266.8 0C244.7 0 222.3 0 200 0C177.7 0 155.3 0 133.2 0C111 0 89 0 66.8 0C44.7 0 22.3 0 11.2 0L0 0Z" fill="#656897"></path><path d="M0 91L11.2 93.2C22.3 95.3 44.7 99.7 66.8 101.8C89 104 111 104 133.2 100.7C155.3 97.3 177.7 90.7 200 89.7C222.3 88.7 244.7 93.3 266.8 94.7C289 96 311 94 333.2 94C355.3 94 377.7 96 400 94.7C422.3 93.3 444.7 88.7 466.8 88C489 87.3 511 90.7 533.2 91.8C555.3 93 577.7 92 600 93.2C622.3 94.3 644.7 97.7 666.8 99C689 100.3 711 99.7 733.2 97.3C755.3 95 777.7 91 800 90.8C822.3 90.7 844.7 94.3 866.8 97.5C889 100.7 911 103.3 933.2 104.8C955.3 106.3 977.7 106.7 1000 105C1022.3 103.3 1044.7 99.7 1066.8 99.3C1089 99 1111 102 1133.2 100C1155.3 98 1177.7 91 1188.8 87.5L1200 84L1200 0L1188.8 0C1177.7 0 1155.3 0 1133.2 0C1111 0 1089 0 1066.8 0C1044.7 0 1022.3 0 1000 0C977.7 0 955.3 0 933.2 0C911 0 889 0 866.8 0C844.7 0 822.3 0 800 0C777.7 0 755.3 0 733.2 0C711 0 689 0 666.8 0C644.7 0 622.3 0 600 0C577.7 0 555.3 0 533.2 0C511 0 489 0 466.8 0C444.7 0 422.3 0 400 0C377.7 0 355.3 0 333.2 0C311 0 289 0 266.8 0C244.7 0 222.3 0 200 0C177.7 0 155.3 0 133.2 0C111 0 89 0 66.8 0C44.7 0 22.3 0 11.2 0L0 0Z" fill="#575c88"></path><path d="M0 70L11.2 70C22.3 70 44.7 70 66.8 69.8C89 69.7 111 69.3 133.2 70.5C155.3 71.7 177.7 74.3 200 76.5C222.3 78.7 244.7 80.3 266.8 80.7C289 81 311 80 333.2 80.3C355.3 80.7 377.7 82.3 400 84.2C422.3 86 444.7 88 466.8 86.5C489 85 511 80 533.2 79.2C555.3 78.3 577.7 81.7 600 82C622.3 82.3 644.7 79.7 666.8 77.7C689 75.7 711 74.3 733.2 75.8C755.3 77.3 777.7 81.7 800 83C822.3 84.3 844.7 82.7 866.8 80.8C889 79 911 77 933.2 78.5C955.3 80 977.7 85 1000 86.8C1022.3 88.7 1044.7 87.3 1066.8 84C1089 80.7 1111 75.3 1133.2 73.3C1155.3 71.3 1177.7 72.7 1188.8 73.3L1200 74L1200 0L1188.8 0C1177.7 0 1155.3 0 1133.2 0C1111 0 1089 0 1066.8 0C1044.7 0 1022.3 0 1000 0C977.7 0 955.3 0 933.2 0C911 0 889 0 866.8 0C844.7 0 822.3 0 800 0C777.7 0 755.3 0 733.2 0C711 0 689 0 666.8 0C644.7 0 622.3 0 600 0C577.7 0 555.3 0 533.2 0C511 0 489 0 466.8 0C444.7 0 422.3 0 400 0C377.7 0 355.3 0 333.2 0C311 0 289 0 266.8 0C244.7 0 222.3 0 200 0C177.7 0 155.3 0 133.2 0C111 0 89 0 66.8 0C44.7 0 22.3 0 11.2 0L0 0Z" fill="#4a5179"></path><path d="M0 67L11.2 67.3C22.3 67.7 44.7 68.3 66.8 69.3C89 70.3 111 71.7 133.2 71.5C155.3 71.3 177.7 69.7 200 68C222.3 66.3 244.7 64.7 266.8 62.5C289 60.3 311 57.7 333.2 57.2C355.3 56.7 377.7 58.3 400 59.8C422.3 61.3 444.7 62.7 466.8 63.5C489 64.3 511 64.7 533.2 65.3C555.3 66 577.7 67 600 68.8C622.3 70.7 644.7 73.3 666.8 74.5C689 75.7 711 75.3 733.2 73.7C755.3 72 777.7 69 800 65.8C822.3 62.7 844.7 59.3 866.8 61.3C889 63.3 911 70.7 933.2 72.8C955.3 75 977.7 72 1000 69.5C1022.3 67 1044.7 65 1066.8 65.5C1089 66 1111 69 1133.2 68C1155.3 67 1177.7 62 1188.8 59.5L1200 57L1200 0L1188.8 0C1177.7 0 1155.3 0 1133.2 0C1111 0 1089 0 1066.8 0C1044.7 0 1022.3 0 1000 0C977.7 0 955.3 0 933.2 0C911 0 889 0 866.8 0C844.7 0 822.3 0 800 0C777.7 0 755.3 0 733.2 0C711 0 689 0 666.8 0C644.7 0 622.3 0 600 0C577.7 0 555.3 0 533.2 0C511 0 489 0 466.8 0C444.7 0 422.3 0 400 0C377.7 0 355.3 0 333.2 0C311 0 289 0 266.8 0C244.7 0 222.3 0 200 0C177.7 0 155.3 0 133.2 0C111 0 89 0 66.8 0C44.7 0 22.3 0 11.2 0L0 0Z" fill="#3c456b"></path><path d="M0 49L11.2 48.5C22.3 48 44.7 47 66.8 48C89 49 111 52 133.2 51.5C155.3 51 177.7 47 200 46C222.3 45 244.7 47 266.8 47.3C289 47.7 311 46.3 333.2 48.2C355.3 50 377.7 55 400 57C422.3 59 444.7 58 466.8 58.8C489 59.7 511 62.3 533.2 62.7C555.3 63 577.7 61 600 57.7C622.3 54.3 644.7 49.7 666.8 46.7C689 43.7 711 42.3 733.2 45C755.3 47.7 777.7 54.3 800 58.3C822.3 62.3 844.7 63.7 866.8 62.3C889 61 911 57 933.2 54.7C955.3 52.3 977.7 51.7 1000 52.7C1022.3 53.7 1044.7 56.3 1066.8 58.8C1089 61.3 1111 63.7 1133.2 63C1155.3 62.3 1177.7 58.7 1188.8 56.8L1200 55L1200 0L1188.8 0C1177.7 0 1155.3 0 1133.2 0C1111 0 1089 0 1066.8 0C1044.7 0 1022.3 0 1000 0C977.7 0 955.3 0 933.2 0C911 0 889 0 866.8 0C844.7 0 822.3 0 800 0C777.7 0 755.3 0 733.2 0C711 0 689 0 666.8 0C644.7 0 622.3 0 600 0C577.7 0 555.3 0 533.2 0C511 0 489 0 466.8 0C444.7 0 422.3 0 400 0C377.7 0 355.3 0 333.2 0C311 0 289 0 266.8 0C244.7 0 222.3 0 200 0C177.7 0 155.3 0 133.2 0C111 0 89 0 66.8 0C44.7 0 22.3 0 11.2 0L0 0Z" fill="#303a5c"></path><path d="M0 46L11.2 46.8C22.3 47.7 44.7 49.3 66.8 48.2C89 47 111 43 133.2 40.8C155.3 38.7 177.7 38.3 200 38.7C222.3 39 244.7 40 266.8 38.3C289 36.7 311 32.3 333.2 33.8C355.3 35.3 377.7 42.7 400 44C422.3 45.3 444.7 40.7 466.8 39.5C489 38.3 511 40.7 533.2 39.7C555.3 38.7 577.7 34.3 600 35.5C622.3 36.7 644.7 43.3 666.8 44.5C689 45.7 711 41.3 733.2 41.2C755.3 41 777.7 45 800 45.7C822.3 46.3 844.7 43.7 866.8 41.8C889 40 911 39 933.2 39.3C955.3 39.7 977.7 41.3 1000 40.5C1022.3 39.7 1044.7 36.3 1066.8 34.8C1089 33.3 1111 33.7 1133.2 36.7C1155.3 39.7 1177.7 45.3 1188.8 48.2L1200 51L1200 0L1188.8 0C1177.7 0 1155.3 0 1133.2 0C1111 0 1089 0 1066.8 0C1044.7 0 1022.3 0 1000 0C977.7 0 955.3 0 933.2 0C911 0 889 0 866.8 0C844.7 0 822.3 0 800 0C777.7 0 755.3 0 733.2 0C711 0 689 0 666.8 0C644.7 0 622.3 0 600 0C577.7 0 555.3 0 533.2 0C511 0 489 0 466.8 0C444.7 0 422.3 0 400 0C377.7 0 355.3 0 333.2 0C311 0 289 0 266.8 0C244.7 0 222.3 0 200 0C177.7 0 155.3 0 133.2 0C111 0 89 0 66.8 0C44.7 0 22.3 0 11.2 0L0 0Z" fill="#24304e"></path><path d="M0 30L11.2 28C22.3 26 44.7 22 66.8 19.7C89 17.3 111 16.7 133.2 20C155.3 23.3 177.7 30.7 200 30.5C222.3 30.3 244.7 22.7 266.8 19.2C289 15.7 311 16.3 333.2 18.3C355.3 20.3 377.7 23.7 400 23.3C422.3 23 444.7 19 466.8 20C489 21 511 27 533.2 30.7C555.3 34.3 577.7 35.7 600 32.7C622.3 29.7 644.7 22.3 666.8 21.2C689 20 711 25 733.2 28.7C755.3 32.3 777.7 34.7 800 35C822.3 35.3 844.7 33.7 866.8 31C889 28.3 911 24.7 933.2 25C955.3 25.3 977.7 29.7 1000 30.7C1022.3 31.7 1044.7 29.3 1066.8 27.7C1089 26 1111 25 1133.2 23.3C1155.3 21.7 1177.7 19.3 1188.8 18.2L1200 17L1200 0L1188.8 0C1177.7 0 1155.3 0 1133.2 0C1111 0 1089 0 1066.8 0C1044.7 0 1022.3 0 1000 0C977.7 0 955.3 0 933.2 0C911 0 889 0 866.8 0C844.7 0 822.3 0 800 0C777.7 0 755.3 0 733.2 0C711 0 689 0 666.8 0C644.7 0 622.3 0 600 0C577.7 0 555.3 0 533.2 0C511 0 489 0 466.8 0C444.7 0 422.3 0 400 0C377.7 0 355.3 0 333.2 0C311 0 289 0 266.8 0C244.7 0 222.3 0 200 0C177.7 0 155.3 0 133.2 0C111 0 89 0 66.8 0C44.7 0 22.3 0 11.2 0L0 0Z" fill="#182540"></path><path d="M0 20L11.2 20C22.3 20 44.7 20 66.8 16.8C89 13.7 111 7.3 133.2 5.3C155.3 3.3 177.7 5.7 200 8.7C222.3 11.7 244.7 15.3 266.8 15.3C289 15.3 311 11.7 333.2 9C355.3 6.3 377.7 4.7 400 5.7C422.3 6.7 444.7 10.3 466.8 10.3C489 10.3 511 6.7 533.2 6.7C555.3 6.7 577.7 10.3 600 12.7C622.3 15 644.7 16 666.8 14.2C689 12.3 711 7.7 733.2 5.3C755.3 3 777.7 3 800 3.7C822.3 4.3 844.7 5.7 866.8 8.3C889 11 911 15 933.2 16C955.3 17 977.7 15 1000 15.2C1022.3 15.3 1044.7 17.7 1066.8 16.2C1089 14.7 1111 9.3 1133.2 6.5C1155.3 3.7 1177.7 3.3 1188.8 3.2L1200 3L1200 0L1188.8 0C1177.7 0 1155.3 0 1133.2 0C1111 0 1089 0 1066.8 0C1044.7 0 1022.3 0 1000 0C977.7 0 955.3 0 933.2 0C911 0 889 0 866.8 0C844.7 0 822.3 0 800 0C777.7 0 755.3 0 733.2 0C711 0 689 0 666.8 0C644.7 0 622.3 0 600 0C577.7 0 555.3 0 533.2 0C511 0 489 0 466.8 0C444.7 0 422.3 0 400 0C377.7 0 355.3 0 333.2 0C311 0 289 0 266.8 0C244.7 0 222.3 0 200 0C177.7 0 155.3 0 133.2 0C111 0 89 0 66.8 0C44.7 0 22.3 0 11.2 0L0 0Z" fill="#0c1b33"></path></svg>