<svg id="visual" viewBox="0 0 1200 200" width="1200" height="200" xmlns="http://www.w3.org/2000/svg" xmlns:xlink="http://www.w3.org/1999/xlink" version="1.1"><rect x="0" y="0" width="1200" height="200" fill="#ebf2fa"></rect><path d="M0 172L11.2 176C22.3 180 44.7 188 66.8 192C89 196 111 196 133.2 195.5C155.3 195 177.7 194 200 193.2C222.3 192.3 244.7 191.7 266.8 189C289 186.3 311 181.7 333.2 179.2C355.3 176.7 377.7 176.3 400 177.5C422.3 178.7 444.7 181.3 466.8 179.5C489 177.7 511 171.3 533.2 169.8C555.3 168.3 577.7 171.7 600 173.5C622.3 175.3 644.7 175.7 666.8 174.7C689 173.7 711 171.3 733.2 171.8C755.3 172.3 777.7 175.7 800 177.3C822.3 179 844.7 179 866.8 178C889 177 911 175 933.2 174.5C955.3 174 977.7 175 1000 175.5C1022.3 176 1044.7 176 1066.8 175.5C1089 175 1111 174 1133.2 174.2C1155.3 174.3 1177.7 175.7 1188.8 176.3L1200 177L1200 0L1188.8 0C1177.7 0 1155.3 0 1133.2 0C1111 0 1089 0 1066.8 0C1044.7 0 1022.3 0 1000 0C977.7 0 955.3 0 933.2 0C911 0 889 0 866.8 0C844.7 0 822.3 0 800 0C777.7 0 755.3 0 733.2 0C711 0 689 0 666.8 0C644.7 0 622.3 0 600 0C577.7 0 555.3 0 533.2 0C511 0 489 0 466.8 0C444.7 0 422.3 0 400 0C377.7 0 355.3 0 333.2 0C311 0 289 0 266.8 0C244.7 0 222.3 0 200 0C177.7 0 155.3 0 133.2 0C111 0 89 0 66.8 0C44.7 0 22.3 0 11.2 0L0 0Z" fill="#8380b6"></path><path d="M0 169L11.2 168.3C22.3 167.7 44.7 166.3 66.8 168C89 169.7 111 174.3 133.2 172.8C155.3 171.3 177.7 163.7 200 159C222.3 154.3 244.7 152.7 266.8 155.3C289 158 311 165 333.2 169.5C355.3 174 377.7 176 400 175.7C422.3 175.3 444.7 172.7 466.8 167.5C489 162.3 511 154.7 533.2 155C555.3 155.3 577.7 163.7 600 164.8C622.3 166 644.7 160 666.8 160.3C689 160.7 711 167.3 733.2 168.2C755.3 169 777.7 164 800 162.5C822.3 161 844.7 163 866.8 161.8C889 160.7 911 156.3 933.2 153.8C955.3 151.3 977.7 150.7 1000 155C1022.3 159.3 1044.7 168.7 1066.8 169.5C1089 170.3 1111 162.7 1133.2 162.5C1155.3 162.3 1177.7 169.7 1188.8 173.3L1200 177L1200 0L1188.8 0C1177.7 0 1155.3 0 1133.2 0C1111 0 1089 0 1066.8 0C1044.7 0 1022.3 0 1000 0C977.7 0 955.3 0 933.2 0C911 0 889 0 866.8 0C844.7 0 822.3 0 800 0C777.7 0 755.3 0 733.2 0C711 0 689 0 666.8 0C644.7 0 622.3 0 600 0C577.7 0 555.3 0 533.2 0C511 0 489 0 466.8 0C444.7 0 422.3 0 400 0C377.7 0 355.3 0 333.2 0C311 0 289 0 266.8 0C244.7 0 222.3 0 200 0C177.7 0 155.3 0 133.2 0C111 0 89 0 66.8 0C44.7 0 22.3 0 11.2 0L0 0Z" fill="#7474a7"></path><path d="M0 152L11.2 150.3C22.3 148.7 44.7 145.3 66.8 145.7C89 146 111 150 133.2 152.5C155.3 155 177.7 156 200 152.5C222.3 149 244.7 141 266.8 136.3C289 131.7 311 130.3 333.2 133.2C355.3 136 377.7 143 400 148.2C422.3 153.3 444.7 156.7 466.8 154.8C489 153 511 146 533.2 142.5C555.3 139 577.7 139 600 140.7C622.3 142.3 644.7 145.7 666.8 147.7C689 149.7 711 150.3 733.2 150.5C755.3 150.7 777.7 150.3 800 149C822.3 147.7 844.7 145.3 866.8 143.7C889 142 911 141 933.2 143.7C955.3 146.3 977.7 152.7 1000 151C1022.3 149.3 1044.7 139.7 1066.8 135.3C1089 131 1111 132 1133.2 137C1155.3 142 1177.7 151 1188.8 155.5L1200 160L1200 0L1188.8 0C1177.7 0 1155.3 0 1133.2 0C1111 0 1089 0 1066.8 0C1044.7 0 1022.3 0 1000 0C977.7 0 955.3 0 933.2 0C911 0 889 0 866.8 0C844.7 0 822.3 0 800 0C777.7 0 755.3 0 733.2 0C711 0 689 0 666.8 0C644.7 0 622.3 0 600 0C577.7 0 555.3 0 533.2 0C511 0 489 0 466.8 0C444.7 0 422.3 0 400 0C377.7 0 355.3 0 333.2 0C311 0 289 0 266.8 0C244.7 0 222.3 0 200 0C177.7 0 155.3 0 133.2 0C111 0 89 0 66.8 0C44.7 0 22.3 0 11.2 0L0 0Z" fill="#656897"></path><path d="M0 121L11.2 123.8C22.3 126.7 44.7 132.3 66.8 135.3C89 138.3 111 138.7 133.2 134.5C155.3 130.3 177.7 121.7 200 120.3C222.3 119 244.7 125 266.8 126.5C289 128 311 125 333.2 125C355.3 125 377.7 128 400 126.3C422.3 124.7 444.7 118.3 466.8 117.5C489 116.7 511 121.3 533.2 122.8C555.3 124.3 577.7 122.7 600 124.2C622.3 125.7 644.7 130.3 666.8 132.2C689 134 711 133 733.2 129.8C755.3 126.7 777.7 121.3 800 121.2C822.3 121 844.7 126 866.8 130.2C889 134.3 911 137.7 933.2 139.5C955.3 141.3 977.7 141.7 1000 139.5C1022.3 137.3 1044.7 132.7 1066.8 132.5C1089 132.3 1111 136.7 1133.2 134C1155.3 131.3 1177.7 121.7 1188.8 116.8L1200 112L1200 0L1188.8 0C1177.7 0 1155.3 0 1133.2 0C1111 0 1089 0 1066.8 0C1044.7 0 1022.3 0 1000 0C977.7 0 955.3 0 933.2 0C911 0 889 0 866.8 0C844.7 0 822.3 0 800 0C777.7 0 755.3 0 733.2 0C711 0 689 0 666.8 0C644.7 0 622.3 0 600 0C577.7 0 555.3 0 533.2 0C511 0 489 0 466.8 0C444.7 0 422.3 0 400 0C377.7 0 355.3 0 333.2 0C311 0 289 0 266.8 0C244.7 0 222.3 0 200 0C177.7 0 155.3 0 133.2 0C111 0 89 0 66.8 0C44.7 0 22.3 0 11.2 0L0 0Z" fill="#575c88"></path><path d="M0 94L11.2 94C22.3 94 44.7 94 66.8 93.7C89 93.3 111 92.7 133.2 94C155.3 95.3 177.7 98.7 200 101.5C222.3 104.3 244.7 106.7 266.8 107.2C289 107.7 311 106.3 333.2 106.8C355.3 107.3 377.7 109.7 400 112.3C422.3 115 444.7 118 466.8 116C489 114 511 107 533.2 105.7C555.3 104.3 577.7 108.7 600 109.2C622.3 109.7 644.7 106.3 666.8 103.7C689 101 711 99 733.2 101C755.3 103 777.7 109 800 111C822.3 113 844.7 111 866.8 108.7C889 106.3 911 103.7 933.2 105.5C955.3 107.3 977.7 113.7 1000 116C1022.3 118.3 1044.7 116.7 1066.8 112.3C1089 108 1111 101 1133.2 98.5C1155.3 96 1177.7 98 1188.8 99L1200 100L1200 0L1188.8 0C1177.7 0 1155.3 0 1133.2 0C1111 0 1089 0 1066.8 0C1044.7 0 1022.3 0 1000 0C977.7 0 955.3 0 933.2 0C911 0 889 0 866.8 0C844.7 0 822.3 0 800 0C777.7 0 755.3 0 733.2 0C711 0 689 0 666.8 0C644.7 0 622.3 0 600 0C577.7 0 555.3 0 533.2 0C511 0 489 0 466.8 0C444.7 0 422.3 0 400 0C377.7 0 355.3 0 333.2 0C311 0 289 0 266.8 0C244.7 0 222.3 0 200 0C177.7 0 155.3 0 133.2 0C111 0 89 0 66.8 0C44.7 0 22.3 0 11.2 0L0 0Z" fill="#4a5179"></path><path d="M0 89L11.2 89.5C22.3 90 44.7 91 66.8 92.3C89 93.7 111 95.3 133.2 95.2C155.3 95 177.7 93 200 90.8C222.3 88.7 244.7 86.3 266.8 83.5C289 80.7 311 77.3 333.2 76.7C355.3 76 377.7 78 400 80C422.3 82 444.7 84 466.8 85.3C489 86.7 511 87.3 533.2 88.2C555.3 89 577.7 90 600 92.2C622.3 94.3 644.7 97.7 666.8 99.2C689 100.7 711 100.3 733.2 98.2C755.3 96 777.7 92 800 87.8C822.3 83.7 844.7 79.3 866.8 82.2C889 85 911 95 933.2 97.8C955.3 100.7 977.7 96.3 1000 93C1022.3 89.7 1044.7 87.3 1066.8 88.2C1089 89 1111 93 1133.2 91.7C1155.3 90.3 1177.7 83.7 1188.8 80.3L1200 77L1200 0L1188.8 0C1177.7 0 1155.3 0 1133.2 0C1111 0 1089 0 1066.8 0C1044.7 0 1022.3 0 1000 0C977.7 0 955.3 0 933.2 0C911 0 889 0 866.8 0C844.7 0 822.3 0 800 0C777.7 0 755.3 0 733.2 0C711 0 689 0 666.8 0C644.7 0 622.3 0 600 0C577.7 0 555.3 0 533.2 0C511 0 489 0 466.8 0C444.7 0 422.3 0 400 0C377.7 0 355.3 0 333.2 0C311 0 289 0 266.8 0C244.7 0 222.3 0 200 0C177.7 0 155.3 0 133.2 0C111 0 89 0 66.8 0C44.7 0 22.3 0 11.2 0L0 0Z" fill="#3c456b"></path><path d="M0 66L11.2 65.3C22.3 64.7 44.7 63.3 66.8 64.5C89 65.7 111 69.3 133.2 68.5C155.3 67.7 177.7 62.3 200 61C222.3 59.7 244.7 62.3 266.8 62.8C289 63.3 311 61.7 333.2 64.3C355.3 67 377.7 74 400 76.7C422.3 79.3 444.7 77.7 466.8 78.8C489 80 511 84 533.2 84.7C555.3 85.3 577.7 82.7 600 78C622.3 73.3 644.7 66.7 666.8 62.7C689 58.7 711 57.3 733.2 60.8C755.3 64.3 777.7 72.7 800 77.8C822.3 83 844.7 85 866.8 83.3C889 81.7 911 76.3 933.2 73.2C955.3 70 977.7 69 1000 70.5C1022.3 72 1044.7 76 1066.8 79.3C1089 82.7 1111 85.3 1133.2 84.2C1155.3 83 1177.7 78 1188.8 75.5L1200 73L1200 0L1188.8 0C1177.7 0 1155.3 0 1133.2 0C1111 0 1089 0 1066.8 0C1044.7 0 1022.3 0 1000 0C977.7 0 955.3 0 933.2 0C911 0 889 0 866.8 0C844.7 0 822.3 0 800 0C777.7 0 755.3 0 733.2 0C711 0 689 0 666.8 0C644.7 0 622.3 0 600 0C577.7 0 555.3 0 533.2 0C511 0 489 0 466.8 0C444.7 0 422.3 0 400 0C377.7 0 355.3 0 333.2 0C311 0 289 0 266.8 0C244.7 0 222.3 0 200 0C177.7 0 155.3 0 133.2 0C111 0 89 0 66.8 0C44.7 0 22.3 0 11.2 0L0 0Z" fill="#303a5c"></path><path d="M0 61L11.2 62.3C22.3 63.7 44.7 66.3 66.8 64.8C89 63.3 111 57.7 133.2 54.8C155.3 52 177.7 52 200 52.5C222.3 53 244.7 54 266.8 51.7C289 49.3 311 43.7 333.2 45.7C355.3 47.7 377.7 57.3 400 59C422.3 60.7 444.7 54.3 466.8 52.7C489 51 511 54 533.2 52.7C555.3 51.3 577.7 45.7 600 47.3C622.3 49 644.7 58 666.8 59.5C689 61 711 55 733.2 54.7C755.3 54.3 777.7 59.7 800 60.7C822.3 61.7 844.7 58.3 866.8 56C889 53.7 911 52.3 933.2 52.7C955.3 53 977.7 55 1000 53.8C1022.3 52.7 1044.7 48.3 1066.8 46.5C1089 44.7 1111 45.3 1133.2 49.5C1155.3 53.7 1177.7 61.3 1188.8 65.2L1200 69L1200 0L1188.8 0C1177.7 0 1155.3 0 1133.2 0C1111 0 1089 0 1066.8 0C1044.7 0 1022.3 0 1000 0C977.7 0 955.3 0 933.2 0C911 0 889 0 866.8 0C844.7 0 822.3 0 800 0C777.7 0 755.3 0 733.2 0C711 0 689 0 666.8 0C644.7 0 622.3 0 600 0C577.7 0 555.3 0 533.2 0C511 0 489 0 466.8 0C444.7 0 422.3 0 400 0C377.7 0 355.3 0 333.2 0C311 0 289 0 266.8 0C244.7 0 222.3 0 200 0C177.7 0 155.3 0 133.2 0C111 0 89 0 66.8 0C44.7 0 22.3 0 11.2 0L0 0Z" fill="#24304e"></path><path d="M0 41L11.2 38.2C22.3 35.3 44.7 29.7 66.8 26.5C89 23.3 111 22.7 133.2 27.2C155.3 31.7 177.7 41.3 200 41C222.3 40.7 244.7 30.3 266.8 25.7C289 21 311 22 333.2 24.8C355.3 27.7 377.7 32.3 400 32C422.3 31.7 444.7 26.3 466.8 27.7C489 29 511 37 533.2 41.8C555.3 46.7 577.7 48.3 600 44.3C622.3 40.3 644.7 30.7 666.8 29C689 27.3 711 33.7 733.2 38.5C755.3 43.3 777.7 46.7 800 47.2C822.3 47.7 844.7 45.3 866.8 41.7C889 38 911 33 933.2 33.3C955.3 33.7 977.7 39.3 1000 40.7C1022.3 42 1044.7 39 1066.8 36.8C1089 34.7 1111 33.3 1133.2 31.2C1155.3 29 1177.7 26 1188.8 24.5L1200 23L1200 0L1188.8 0C1177.7 0 1155.3 0 1133.2 0C1111 0 1089 0 1066.8 0C1044.7 0 1022.3 0 1000 0C977.7 0 955.3 0 933.2 0C911 0 889 0 866.8 0C844.7 0 822.3 0 800 0C777.7 0 755.3 0 733.2 0C711 0 689 0 666.8 0C644.7 0 622.3 0 600 0C577.7 0 555.3 0 533.2 0C511 0 489 0 466.8 0C444.7 0 422.3 0 400 0C377.7 0 355.3 0 333.2 0C311 0 289 0 266.8 0C244.7 0 222.3 0 200 0C177.7 0 155.3 0 133.2 0C111 0 89 0 66.8 0C44.7 0 22.3 0 11.2 0L0 0Z" fill="#182540"></path><path d="M0 27L11.2 27C22.3 27 44.7 27 66.8 22.8C89 18.7 111 10.3 133.2 7.7C155.3 5 177.7 8 200 11.8C222.3 15.7 244.7 20.3 266.8 20.3C289 20.3 311 15.7 333.2 12.2C355.3 8.7 377.7 6.3 400 7.8C422.3 9.3 444.7 14.7 466.8 14.8C489 15 511 10 533.2 9.8C555.3 9.7 577.7 14.3 600 17.3C622.3 20.3 644.7 21.7 666.8 19.2C689 16.7 711 10.3 733.2 7.2C755.3 4 777.7 4 800 4.8C822.3 5.7 844.7 7.3 866.8 11C889 14.7 911 20.3 933.2 21.8C955.3 23.3 977.7 20.7 1000 21C1022.3 21.3 1044.7 24.7 1066.8 22.5C1089 20.3 1111 12.7 1133.2 8.7C1155.3 4.7 1177.7 4.3 1188.8 4.2L1200 4L1200 0L1188.8 0C1177.7 0 1155.3 0 1133.2 0C1111 0 1089 0 1066.8 0C1044.7 0 1022.3 0 1000 0C977.7 0 955.3 0 933.2 0C911 0 889 0 866.8 0C844.7 0 822.3 0 800 0C777.7 0 755.3 0 733.2 0C711 0 689 0 666.8 0C644.7 0 622.3 0 600 0C577.7 0 555.3 0 533.2 0C511 0 489 0 466.8 0C444.7 0 422.3 0 400 0C377.7 0 355.3 0 333.2 0C311 0 289 0 266.8 0C244.7 0 222.3 0 200 0C177.7 0 155.3 0 133.2 0C111 0 89 0 66.8 0C44.7 0 22.3 0 11.2 0L0 0Z" fill="#0c1b33"></path></svg>