<svg id="visual" viewBox="0 0 1200 100" width="1200" height="100" xmlns="http://www.w3.org/2000/svg" xmlns:xlink="http://www.w3.org/1999/xlink" version="1.1"><path d="M0 86L11.2 87.8C22.3 89.7 44.7 93.3 66.8 95.3C89 97.3 111 97.7 133.2 97.5C155.3 97.3 177.7 96.7 200 96.2C222.3 95.7 244.7 95.3 266.8 94C289 92.7 311 90.3 333.2 89.2C355.3 88 377.7 88 400 88.7C422.3 89.3 444.7 90.7 466.8 89.7C489 88.7 511 85.3 533.2 84.5C555.3 83.7 577.7 85.3 600 86.2C622.3 87 644.7 87 666.8 86.5C689 86 711 85 733.2 85.3C755.3 85.7 777.7 87.3 800 88.2C822.3 89 844.7 89 866.8 88.5C889 88 911 87 933.2 86.8C955.3 86.7 977.7 87.3 1000 87.7C1022.3 88 1044.7 88 1066.8 87.7C1089 87.3 1111 86.7 1133.2 86.7C1155.3 86.7 1177.7 87.3 1188.8 87.7L1200 88L1200 0L1188.8 0C1177.7 0 1155.3 0 1133.2 0C1111 0 1089 0 1066.8 0C1044.7 0 1022.3 0 1000 0C977.7 0 955.3 0 933.2 0C911 0 889 0 866.8 0C844.7 0 822.3 0 800 0C777.7 0 755.3 0 733.2 0C711 0 689 0 666.8 0C644.7 0 622.3 0 600 0C577.7 0 555.3 0 533.2 0C511 0 489 0 466.8 0C444.7 0 422.3 0 400 0C377.7 0 355.3 0 333.2 0C311 0 289 0 266.8 0C244.7 0 222.3 0 200 0C177.7 0 155.3 0 133.2 0C111 0 89 0 66.8 0C44.7 0 22.3 0 11.2 0L0 0Z" fill="#8380b6"></path><path d="M0 84L11.2 83.7C22.3 83.3 44.7 82.7 66.8 83.5C89 84.3 111 86.7 133.2 86C155.3 85.3 177.7 81.7 200 79.3C222.3 77 244.7 76 266.8 77.3C289 78.7 311 82.3 333.2 84.7C355.3 87 377.7 88 400 87.7C422.3 87.3 444.7 85.7 466.8 83C489 80.3 511 76.7 533.2 76.8C555.3 77 577.7 81 600 81.5C622.3 82 644.7 79 666.8 79.2C689 79.3 711 82.7 733.2 83.2C755.3 83.7 777.7 81.3 800 80.7C822.3 80 844.7 81 866.8 80.5C889 80 911 78 933.2 76.8C955.3 75.7 977.7 75.3 1000 77.5C1022.3 79.7 1044.7 84.3 1066.8 84.7C1089 85 1111 81 1133.2 80.8C1155.3 80.7 1177.7 84.3 1188.8 86.2L1200 88L1200 0L1188.8 0C1177.7 0 1155.3 0 1133.2 0C1111 0 1089 0 1066.8 0C1044.7 0 1022.3 0 1000 0C977.7 0 955.3 0 933.2 0C911 0 889 0 866.8 0C844.7 0 822.3 0 800 0C777.7 0 755.3 0 733.2 0C711 0 689 0 666.8 0C644.7 0 622.3 0 600 0C577.7 0 555.3 0 533.2 0C511 0 489 0 466.8 0C444.7 0 422.3 0 400 0C377.7 0 355.3 0 333.2 0C311 0 289 0 266.8 0C244.7 0 222.3 0 200 0C177.7 0 155.3 0 133.2 0C111 0 89 0 66.8 0C44.7 0 22.3 0 11.2 0L0 0Z" fill="#7474a7"></path><path d="M0 75L11.2 74.3C22.3 73.7 44.7 72.3 66.8 72.7C89 73 111 75 133.2 76.2C155.3 77.3 177.7 77.7 200 75.8C222.3 74 244.7 70 266.8 67.7C289 65.3 311 64.7 333.2 66.2C355.3 67.7 377.7 71.3 400 74C422.3 76.7 444.7 78.3 466.8 77.3C489 76.3 511 72.7 533.2 70.8C555.3 69 577.7 69 600 69.8C622.3 70.7 644.7 72.3 666.8 73.3C689 74.3 711 74.7 733.2 74.8C755.3 75 777.7 75 800 74.3C822.3 73.7 844.7 72.3 866.8 71.3C889 70.3 911 69.7 933.2 71C955.3 72.3 977.7 75.7 1000 74.8C1022.3 74 1044.7 69 1066.8 66.8C1089 64.7 1111 65.3 1133.2 68C1155.3 70.7 1177.7 75.3 1188.8 77.7L1200 80L1200 0L1188.8 0C1177.7 0 1155.3 0 1133.2 0C1111 0 1089 0 1066.8 0C1044.7 0 1022.3 0 1000 0C977.7 0 955.3 0 933.2 0C911 0 889 0 866.8 0C844.7 0 822.3 0 800 0C777.7 0 755.3 0 733.2 0C711 0 689 0 666.8 0C644.7 0 622.3 0 600 0C577.7 0 555.3 0 533.2 0C511 0 489 0 466.8 0C444.7 0 422.3 0 400 0C377.7 0 355.3 0 333.2 0C311 0 289 0 266.8 0C244.7 0 222.3 0 200 0C177.7 0 155.3 0 133.2 0C111 0 89 0 66.8 0C44.7 0 22.3 0 11.2 0L0 0Z" fill="#656897"></path><path d="M0 60L11.2 61.5C22.3 63 44.7 66 66.8 67.5C89 69 111 69 133.2 66.8C155.3 64.7 177.7 60.3 200 59.7C222.3 59 244.7 62 266.8 62.8C289 63.7 311 62.3 333.2 62.3C355.3 62.3 377.7 63.7 400 62.7C422.3 61.7 444.7 58.3 466.8 57.8C489 57.3 511 59.7 533.2 60.5C555.3 61.3 577.7 60.7 600 61.5C622.3 62.3 644.7 64.7 666.8 65.7C689 66.7 711 66.3 733.2 64.8C755.3 63.3 777.7 60.7 800 60.5C822.3 60.3 844.7 62.7 866.8 64.7C889 66.7 911 68.3 933.2 69.3C955.3 70.3 977.7 70.7 1000 69.7C1022.3 68.7 1044.7 66.3 1066.8 66.2C1089 66 1111 68 1133.2 66.7C1155.3 65.3 1177.7 60.7 1188.8 58.3L1200 56L1200 0L1188.8 0C1177.7 0 1155.3 0 1133.2 0C1111 0 1089 0 1066.8 0C1044.7 0 1022.3 0 1000 0C977.7 0 955.3 0 933.2 0C911 0 889 0 866.8 0C844.7 0 822.3 0 800 0C777.7 0 755.3 0 733.2 0C711 0 689 0 666.8 0C644.7 0 622.3 0 600 0C577.7 0 555.3 0 533.2 0C511 0 489 0 466.8 0C444.7 0 422.3 0 400 0C377.7 0 355.3 0 333.2 0C311 0 289 0 266.8 0C244.7 0 222.3 0 200 0C177.7 0 155.3 0 133.2 0C111 0 89 0 66.8 0C44.7 0 22.3 0 11.2 0L0 0Z" fill="#575c88"></path><path d="M0 46L11.2 46.2C22.3 46.3 44.7 46.7 66.8 46.7C89 46.7 111 46.3 133.2 47C155.3 47.7 177.7 49.3 200 50.7C222.3 52 244.7 53 266.8 53.2C289 53.3 311 52.7 333.2 52.8C355.3 53 377.7 54 400 55.3C422.3 56.7 444.7 58.3 466.8 57.3C489 56.3 511 52.7 533.2 52C555.3 51.3 577.7 53.7 600 54C622.3 54.3 644.7 52.7 666.8 51.3C689 50 711 49 733.2 50C755.3 51 777.7 54 800 55C822.3 56 844.7 55 866.8 53.8C889 52.7 911 51.3 933.2 52.2C955.3 53 977.7 56 1000 57.2C1022.3 58.3 1044.7 57.7 1066.8 55.7C1089 53.7 1111 50.3 1133.2 49C1155.3 47.7 1177.7 48.3 1188.8 48.7L1200 49L1200 0L1188.8 0C1177.7 0 1155.3 0 1133.2 0C1111 0 1089 0 1066.8 0C1044.7 0 1022.3 0 1000 0C977.7 0 955.3 0 933.2 0C911 0 889 0 866.8 0C844.7 0 822.3 0 800 0C777.7 0 755.3 0 733.2 0C711 0 689 0 666.8 0C644.7 0 622.3 0 600 0C577.7 0 555.3 0 533.2 0C511 0 489 0 466.8 0C444.7 0 422.3 0 400 0C377.7 0 355.3 0 333.2 0C311 0 289 0 266.8 0C244.7 0 222.3 0 200 0C177.7 0 155.3 0 133.2 0C111 0 89 0 66.8 0C44.7 0 22.3 0 11.2 0L0 0Z" fill="#4a5179"></path><path d="M0 44L11.2 44.3C22.3 44.7 44.7 45.3 66.8 46C89 46.7 111 47.3 133.2 47.2C155.3 47 177.7 46 200 45C222.3 44 244.7 43 266.8 41.7C289 40.3 311 38.7 333.2 38.2C355.3 37.7 377.7 38.3 400 39.2C422.3 40 444.7 41 466.8 41.7C489 42.3 511 42.7 533.2 43.2C555.3 43.7 577.7 44.3 600 45.5C622.3 46.7 644.7 48.3 666.8 49C689 49.7 711 49.3 733.2 48.3C755.3 47.3 777.7 45.7 800 43.7C822.3 41.7 844.7 39.3 866.8 40.7C889 42 911 47 933.2 48.5C955.3 50 977.7 48 1000 46.3C1022.3 44.7 1044.7 43.3 1066.8 43.7C1089 44 1111 46 1133.2 45.3C1155.3 44.7 1177.7 41.3 1188.8 39.7L1200 38L1200 0L1188.8 0C1177.7 0 1155.3 0 1133.2 0C1111 0 1089 0 1066.8 0C1044.7 0 1022.3 0 1000 0C977.7 0 955.3 0 933.2 0C911 0 889 0 866.8 0C844.7 0 822.3 0 800 0C777.7 0 755.3 0 733.2 0C711 0 689 0 666.8 0C644.7 0 622.3 0 600 0C577.7 0 555.3 0 533.2 0C511 0 489 0 466.8 0C444.7 0 422.3 0 400 0C377.7 0 355.3 0 333.2 0C311 0 289 0 266.8 0C244.7 0 222.3 0 200 0C177.7 0 155.3 0 133.2 0C111 0 89 0 66.8 0C44.7 0 22.3 0 11.2 0L0 0Z" fill="#3c456b"></path><path d="M0 32L11.2 31.7C22.3 31.3 44.7 30.7 66.8 31.3C89 32 111 34 133.2 33.7C155.3 33.3 177.7 30.7 200 30C222.3 29.3 244.7 30.7 266.8 30.8C289 31 311 30 333.2 31.3C355.3 32.7 377.7 36.3 400 37.8C422.3 39.3 444.7 38.7 466.8 39.2C489 39.7 511 41.3 533.2 41.5C555.3 41.7 577.7 40.3 600 38.2C622.3 36 644.7 33 666.8 31C689 29 711 28 733.2 29.7C755.3 31.3 777.7 35.7 800 38.3C822.3 41 844.7 42 866.8 41.2C889 40.3 911 37.7 933.2 36C955.3 34.3 977.7 33.7 1000 34.3C1022.3 35 1044.7 37 1066.8 38.7C1089 40.3 1111 41.7 1133.2 41.2C1155.3 40.7 1177.7 38.3 1188.8 37.2L1200 36L1200 0L1188.8 0C1177.7 0 1155.3 0 1133.2 0C1111 0 1089 0 1066.8 0C1044.7 0 1022.3 0 1000 0C977.7 0 955.3 0 933.2 0C911 0 889 0 866.8 0C844.7 0 822.3 0 800 0C777.7 0 755.3 0 733.2 0C711 0 689 0 666.8 0C644.7 0 622.3 0 600 0C577.7 0 555.3 0 533.2 0C511 0 489 0 466.8 0C444.7 0 422.3 0 400 0C377.7 0 355.3 0 333.2 0C311 0 289 0 266.8 0C244.7 0 222.3 0 200 0C177.7 0 155.3 0 133.2 0C111 0 89 0 66.8 0C44.7 0 22.3 0 11.2 0L0 0Z" fill="#303a5c"></path><path d="M0 30L11.2 30.7C22.3 31.3 44.7 32.7 66.8 32C89 31.3 111 28.7 133.2 27.2C155.3 25.7 177.7 25.3 200 25.5C222.3 25.7 244.7 26.3 266.8 25.3C289 24.3 311 21.7 333.2 22.7C355.3 23.7 377.7 28.3 400 29.2C422.3 30 444.7 27 466.8 26.2C489 25.3 511 26.7 533.2 25.8C555.3 25 577.7 22 600 22.8C622.3 23.7 644.7 28.3 666.8 29.2C689 30 711 27 733.2 26.8C755.3 26.7 777.7 29.3 800 29.8C822.3 30.3 844.7 28.7 866.8 27.5C889 26.3 911 25.7 933.2 25.8C955.3 26 977.7 27 1000 26.5C1022.3 26 1044.7 24 1066.8 23C1089 22 1111 22 1133.2 24C1155.3 26 1177.7 30 1188.8 32L1200 34L1200 0L1188.8 0C1177.7 0 1155.3 0 1133.2 0C1111 0 1089 0 1066.8 0C1044.7 0 1022.3 0 1000 0C977.7 0 955.3 0 933.2 0C911 0 889 0 866.8 0C844.7 0 822.3 0 800 0C777.7 0 755.3 0 733.2 0C711 0 689 0 666.8 0C644.7 0 622.3 0 600 0C577.7 0 555.3 0 533.2 0C511 0 489 0 466.8 0C444.7 0 422.3 0 400 0C377.7 0 355.3 0 333.2 0C311 0 289 0 266.8 0C244.7 0 222.3 0 200 0C177.7 0 155.3 0 133.2 0C111 0 89 0 66.8 0C44.7 0 22.3 0 11.2 0L0 0Z" fill="#24304e"></path><path d="M0 20L11.2 18.5C22.3 17 44.7 14 66.8 12.3C89 10.7 111 10.3 133.2 12.7C155.3 15 177.7 20 200 20C222.3 20 244.7 15 266.8 12.7C289 10.3 311 10.7 333.2 12C355.3 13.3 377.7 15.7 400 15.5C422.3 15.3 444.7 12.7 466.8 13.3C489 14 511 18 533.2 20.5C555.3 23 577.7 24 600 22C622.3 20 644.7 15 666.8 14C689 13 711 16 733.2 18.5C755.3 21 777.7 23 800 23.3C822.3 23.7 844.7 22.3 866.8 20.5C889 18.7 911 16.3 933.2 16.5C955.3 16.7 977.7 19.3 1000 20C1022.3 20.7 1044.7 19.3 1066.8 18.3C1089 17.3 1111 16.7 1133.2 15.5C1155.3 14.3 1177.7 12.7 1188.8 11.8L1200 11L1200 0L1188.8 0C1177.7 0 1155.3 0 1133.2 0C1111 0 1089 0 1066.8 0C1044.7 0 1022.3 0 1000 0C977.7 0 955.3 0 933.2 0C911 0 889 0 866.8 0C844.7 0 822.3 0 800 0C777.7 0 755.3 0 733.2 0C711 0 689 0 666.8 0C644.7 0 622.3 0 600 0C577.7 0 555.3 0 533.2 0C511 0 489 0 466.8 0C444.7 0 422.3 0 400 0C377.7 0 355.3 0 333.2 0C311 0 289 0 266.8 0C244.7 0 222.3 0 200 0C177.7 0 155.3 0 133.2 0C111 0 89 0 66.8 0C44.7 0 22.3 0 11.2 0L0 0Z" fill="#182540"></path><path d="M0 13L11.2 13C22.3 13 44.7 13 66.8 10.8C89 8.7 111 4.3 133.2 3C155.3 1.7 177.7 3.3 200 5.3C222.3 7.3 244.7 9.7 266.8 9.7C289 9.7 311 7.3 333.2 5.7C355.3 4 377.7 3 400 3.7C422.3 4.3 444.7 6.7 466.8 6.7C489 6.7 511 4.3 533.2 4.3C555.3 4.3 577.7 6.7 600 8.2C622.3 9.7 644.7 10.3 666.8 9.2C689 8 711 5 733.2 3.3C755.3 1.7 777.7 1.3 800 1.7C822.3 2 844.7 3 866.8 4.8C889 6.7 911 9.3 933.2 10.2C955.3 11 977.7 10 1000 10.2C1022.3 10.3 1044.7 11.7 1066.8 10.5C1089 9.3 1111 5.7 1133.2 3.7C1155.3 1.7 1177.7 1.3 1188.8 1.2L1200 1L1200 0L1188.8 0C1177.7 0 1155.3 0 1133.2 0C1111 0 1089 0 1066.8 0C1044.7 0 1022.3 0 1000 0C977.7 0 955.3 0 933.2 0C911 0 889 0 866.8 0C844.7 0 822.3 0 800 0C777.7 0 755.3 0 733.2 0C711 0 689 0 666.8 0C644.7 0 622.3 0 600 0C577.7 0 555.3 0 533.2 0C511 0 489 0 466.8 0C444.7 0 422.3 0 400 0C377.7 0 355.3 0 333.2 0C311 0 289 0 266.8 0C244.7 0 222.3 0 200 0C177.7 0 155.3 0 133.2 0C111 0 89 0 66.8 0C44.7 0 22.3 0 11.2 0L0 0Z" fill="#0c1b33"></path></svg>